<svg width="24" height="24" viewBox="0 0 24 24" fill="none" xmlns="http://www.w3.org/2000/svg">
<path fill-rule="evenodd" clip-rule="evenodd" d="M12 0C18.6274 0 24 4.55108 24 10.1651C24 20.4518 14.3931 15.7854 13.0732 18.4018C12.2601 20.0835 16.386 24 12 24C2.97964 24 0 15.7792 0 10.1651C0 4.55108 5.37258 0 12 0ZM5 7.62384C3.89543 7.62384 3 8.53405 3 9.65686C3 10.7797 3.89543 11.6899 5 11.6899C6.10457 11.6899 7 10.7797 7 9.65686C7 8.53405 6.10457 7.62384 5 7.62384ZM19 7.62384C17.8954 7.62384 17 8.53405 17 9.65686C17 10.7797 17.8954 11.6899 19 11.6899C20.1046 11.6899 21 10.7797 21 9.65686C21 8.53405 20.1046 7.62384 19 7.62384ZM9 2.54128C7.89543 2.54128 7 3.45149 7 4.5743C7 5.69711 7.89543 6.60733 9 6.60733C10.1046 6.60733 11 5.69711 11 4.5743C11 3.45149 10.1046 2.54128 9 2.54128ZM15 2.54128C13.8954 2.54128 13 3.45149 13 4.5743C13 5.69711 13.8954 6.60733 15 6.60733C16.1046 6.60733 17 5.69711 17 4.5743C17 3.45149 16.1046 2.54128 15 2.54128Z" fill="white"/>
</svg>
