<svg width="144" height="92" viewBox="0 0 144 92" fill="none" xmlns="http://www.w3.org/2000/svg">
<path d="M36 25.7769H108" stroke="#FE2B54" stroke-width="6" stroke-linecap="round" stroke-linejoin="round"/>
<path d="M63 43.5547V70.2214" stroke="#FE2B54" stroke-width="6" stroke-linecap="round" stroke-linejoin="round"/>
<path d="M81 43.5547V70.2214" stroke="#FE2B54" stroke-width="6" stroke-linecap="round" stroke-linejoin="round"/>
<path d="M40.5 25.7773L45 79.1107C45 84.0199 49.0294 87.9996 54 87.9996H90C94.9706 87.9996 99 84.0199 99 79.1107L103.5 25.7773" stroke="#FE2B54" stroke-width="6" stroke-linecap="round" stroke-linejoin="round"/>
<path d="M58.5 25.7778V12.4444C58.5 9.98985 60.5147 8 63 8H81C83.4853 8 85.5 9.98985 85.5 12.4444V25.7778" stroke="#FE2B54" stroke-width="6" stroke-linecap="round" stroke-linejoin="round"/>
<path d="M124 79L112 90" stroke="#FE2B54" stroke-width="3" stroke-linecap="round" stroke-linejoin="round"/>
<path d="M112 79L124 90" stroke="#FE2B54" stroke-width="3" stroke-linecap="round" stroke-linejoin="round"/>
<path d="M130 11L126 14" stroke="#FE2B54" stroke-linecap="round" stroke-linejoin="round"/>
<path d="M126 11L130 14" stroke="#FE2B54" stroke-linecap="round" stroke-linejoin="round"/>
<path d="M5 36L1 39" stroke="#FE2B54" stroke-linecap="round" stroke-linejoin="round"/>
<path d="M1 36L5 39" stroke="#FE2B54" stroke-linecap="round" stroke-linejoin="round"/>
<path d="M44 1L40 4" stroke="#FE2B54" stroke-linecap="round" stroke-linejoin="round"/>
<path d="M40 1L44 4" stroke="#FE2B54" stroke-linecap="round" stroke-linejoin="round"/>
<path d="M143 50L137 55" stroke="#FE2B54" stroke-width="1.5" stroke-linecap="round" stroke-linejoin="round"/>
<path d="M137 50L143 55" stroke="#FE2B54" stroke-width="1.5" stroke-linecap="round" stroke-linejoin="round"/>
<path d="M20 69L14 74" stroke="#FE2B54" stroke-width="1.5" stroke-linecap="round" stroke-linejoin="round"/>
<path d="M14 69L20 74" stroke="#FE2B54" stroke-width="1.5" stroke-linecap="round" stroke-linejoin="round"/>
</svg>
