<svg width="155" height="94" viewBox="0 0 155 94" fill="none" xmlns="http://www.w3.org/2000/svg">
<circle cx="71" cy="54" r="40" fill="#D9D9D9" fill-opacity="0.7"/>
<circle cx="131" cy="74.002" r="4.5" stroke="#0CC67C"/>
<circle cx="3" cy="34.002" r="2.5" stroke="#0CC67C"/>
<circle cx="126" cy="8.00195" r="2.5" stroke="#0CC67C"/>
<circle cx="76" cy="48.002" r="40" fill="#0CC67C"/>
<path d="M62.666 48.0022L71.5549 56.8911L89.3327 39.1133" stroke="white" stroke-width="6" stroke-linecap="round" stroke-linejoin="round"/>
<path d="M145.385 43.7798L144.255 44.0756L144.104 41.3381L142.569 41.7395L142.495 40.5647L144.043 40.1599L143.906 37.8285L142.299 38.2489L142.234 37.079L143.847 36.6569L143.696 34.0255L144.827 33.7297L144.972 36.3628L146.969 35.8403L146.824 33.2073L147.962 32.9097L148.106 35.5428L149.72 35.1207L149.799 36.2871L148.165 36.7144L148.295 39.0475L149.975 38.6081L150.056 39.7811L148.363 40.224L148.514 42.9615L147.383 43.2573L147.232 40.5198L145.235 41.0423L145.385 43.7798ZM145.136 39.9092L147.199 39.3695L147.067 36.9734L145.004 37.5131L145.136 39.9092Z" fill="#0CC67C"/>
<path d="M15.5439 72.6806L14.5745 72.9342L14.4453 70.5878L13.1302 70.9318L13.0666 69.9249L14.3931 69.5779L14.2762 67.5796L12.8987 67.9399L12.8423 66.9371L14.2254 66.5753L14.0958 64.3199L15.0651 64.0663L15.1891 66.3232L16.901 65.8754L16.777 63.6185L17.752 63.3635L17.876 65.6204L19.2592 65.2586L19.3269 66.2584L17.9268 66.6246L18.038 68.6244L19.4779 68.2478L19.5471 69.2533L18.0959 69.6329L18.2252 71.9793L17.2558 72.2328L17.1266 69.8864L15.4146 70.3342L15.5439 72.6806ZM15.3302 69.3631L17.0988 68.9004L16.9855 66.8466L15.2169 67.3092L15.3302 69.3631Z" fill="#0CC67C"/>
<path d="M22.29 10.208L21.3206 10.4615L21.1914 8.11514L19.8763 8.45915L19.8127 7.45222L21.1392 7.10524L21.0222 5.10689L19.6448 5.46722L19.5884 4.46447L20.9715 4.10266L20.8418 1.84722L21.8112 1.59366L21.9352 3.85058L23.6471 3.40277L23.5231 1.14585L24.4981 0.890803L24.6221 3.14773L26.0053 2.78592L26.073 3.7857L24.6729 4.15196L24.7841 6.15179L26.224 5.77515L26.2932 6.7806L24.842 7.1602L24.9712 9.5066L24.0019 9.76017L23.8727 7.41376L22.1607 7.86158L22.29 10.208ZM22.0763 6.8904L23.8449 6.42776L23.7316 4.37395L21.963 4.83659L22.0763 6.8904Z" fill="#0CC67C"/>
</svg>
