<svg width="155" height="88" viewBox="0 0 155 88" fill="none" xmlns="http://www.w3.org/2000/svg">
<circle cx="131" cy="74" r="4.5" stroke="#622CEA"/>
<circle cx="3" cy="34" r="2.5" stroke="#622CEA"/>
<circle cx="126" cy="8" r="2.5" stroke="#622CEA"/>
<path d="M145.892 45.7127L144.761 46.0085L144.61 43.271L143.076 43.6724L143.001 42.4976L144.549 42.0928L144.413 39.7614L142.805 40.1818L142.74 39.0119L144.353 38.5898L144.202 35.9585L145.333 35.6627L145.478 38.2957L147.475 37.7733L147.33 35.1402L148.468 34.8427L148.612 37.4757L150.226 37.0536L150.305 38.22L148.672 38.6473L148.801 40.9805L150.481 40.5411L150.562 41.7141L148.869 42.157L149.02 44.8944L147.889 45.1902L147.738 42.4528L145.741 42.9752L145.892 45.7127ZM145.642 41.8422L147.706 41.3024L147.573 38.9063L145.51 39.4461L145.642 41.8422Z" fill="#622CEA"/>
<path d="M16.05 74.6136L15.0807 74.8671L14.9514 72.5207L13.6363 72.8648L13.5728 71.8578L14.8992 71.5108L14.7823 69.5125L13.4048 69.8728L13.3484 68.8701L14.7316 68.5083L14.6019 66.2528L15.5712 65.9993L15.6952 68.2562L17.4072 67.8084L17.2832 65.5514L18.2582 65.2964L18.3822 67.5533L19.7653 67.1915L19.833 68.1913L18.4329 68.5576L18.5442 70.5574L19.984 70.1807L20.0532 71.1862L18.602 71.5658L18.7313 73.9122L17.762 74.1658L17.6327 71.8194L15.9208 72.2672L16.05 74.6136ZM15.8363 71.296L17.6049 70.8334L17.4916 68.7795L15.723 69.2422L15.8363 71.296Z" fill="#622CEA"/>
<path d="M22.7961 12.1409L21.8268 12.3945L21.6975 10.0481L20.3824 10.3921L20.3189 9.38516L21.6453 9.03818L21.5284 7.03984L20.1509 7.40016L20.0945 6.39742L21.4777 6.03561L21.348 3.78017L22.3173 3.5266L22.4413 5.78353L24.1533 5.33572L24.0292 3.07879L25.0043 2.82375L25.1283 5.08067L26.5114 4.71886L26.5791 5.71864L25.179 6.0849L25.2903 8.08473L26.7301 7.70809L26.7993 8.71354L25.3481 9.09315L25.4774 11.4395L24.508 11.6931L24.3788 9.34671L22.6669 9.79452L22.7961 12.1409ZM22.5824 8.82334L24.351 8.3607L24.2377 6.30689L22.4691 6.76953L22.5824 8.82334Z" fill="#622CEA"/>
<path d="M86.0007 23L72.6673 36.3333L59.334 41.3333L54.334 46.3333L77.6673 69.6667L82.6673 64.6667L87.6673 51.3333L101.001 38" stroke="#622CEA" stroke-width="6" stroke-linecap="round" stroke-linejoin="round"/>
<path d="M66 58L51 73" stroke="#622CEA" stroke-width="6" stroke-linecap="round" stroke-linejoin="round"/>
<path d="M84.334 21.334L102.667 39.6673" stroke="#622CEA" stroke-width="6" stroke-linecap="round" stroke-linejoin="round"/>
</svg>
