<svg width="17" height="17" viewBox="0 0 17 17" fill="none" xmlns="http://www.w3.org/2000/svg">
<path d="M0.804688 3.33247C0.804688 3.74668 1.14047 4.08247 1.55469 4.08247C1.9689 4.08247 2.30469 3.74668 2.30469 3.33247H0.804688ZM3.33247 2.30469C3.74668 2.30469 4.08247 1.9689 4.08247 1.55469C4.08247 1.14047 3.74668 0.804688 3.33247 0.804688V2.30469ZM7.77691 0.804688C7.3627 0.804688 7.02691 1.14047 7.02691 1.55469C7.02691 1.9689 7.3627 2.30469 7.77691 2.30469V0.804688ZM9.55469 2.30469C9.9689 2.30469 10.3047 1.9689 10.3047 1.55469C10.3047 1.14047 9.9689 0.804688 9.55469 0.804688V2.30469ZM13.9991 0.804688C13.5849 0.804688 13.2491 1.14047 13.2491 1.55469C13.2491 1.9689 13.5849 2.30469 13.9991 2.30469V0.804688ZM15.0269 3.33247C15.0269 3.74668 15.3627 4.08247 15.7769 4.08247C16.1911 4.08247 16.5269 3.74668 16.5269 3.33247H15.0269ZM16.5269 7.77691C16.5269 7.3627 16.1911 7.02691 15.7769 7.02691C15.3627 7.02691 15.0269 7.3627 15.0269 7.77691H16.5269ZM15.0269 9.55469C15.0269 9.9689 15.3627 10.3047 15.7769 10.3047C16.1911 10.3047 16.5269 9.9689 16.5269 9.55469H15.0269ZM16.5269 13.9991C16.5269 13.5849 16.1911 13.2491 15.7769 13.2491C15.3627 13.2491 15.0269 13.5849 15.0269 13.9991H16.5269ZM13.9991 15.0269C13.5849 15.0269 13.2491 15.3627 13.2491 15.7769C13.2491 16.1911 13.5849 16.5269 13.9991 16.5269V15.0269ZM9.55469 16.5269C9.9689 16.5269 10.3047 16.1911 10.3047 15.7769C10.3047 15.3627 9.9689 15.0269 9.55469 15.0269V16.5269ZM7.77691 15.0269C7.3627 15.0269 7.02691 15.3627 7.02691 15.7769C7.02691 16.1911 7.3627 16.5269 7.77691 16.5269V15.0269ZM3.33247 16.5269C3.74668 16.5269 4.08247 16.1911 4.08247 15.7769C4.08247 15.3627 3.74668 15.0269 3.33247 15.0269V16.5269ZM2.30469 13.9991C2.30469 13.5849 1.9689 13.2491 1.55469 13.2491C1.14047 13.2491 0.804688 13.5849 0.804688 13.9991H2.30469ZM0.804688 9.55469C0.804688 9.9689 1.14047 10.3047 1.55469 10.3047C1.9689 10.3047 2.30469 9.9689 2.30469 9.55469H0.804688ZM2.30469 7.77691C2.30469 7.3627 1.9689 7.02691 1.55469 7.02691C1.14047 7.02691 0.804688 7.3627 0.804688 7.77691H2.30469ZM2.30469 3.33247V2.44358H0.804688V3.33247H2.30469ZM2.30469 2.44358C2.30469 2.36687 2.36687 2.30469 2.44358 2.30469V0.804688C1.53844 0.804688 0.804688 1.53844 0.804688 2.44358H2.30469ZM2.44358 2.30469H3.33247V0.804688H2.44358V2.30469ZM7.77691 2.30469H9.55469V0.804688H7.77691V2.30469ZM13.9991 2.30469H14.888V0.804688H13.9991V2.30469ZM14.888 2.30469C14.9647 2.30469 15.0269 2.36687 15.0269 2.44358H16.5269C16.5269 1.53844 15.7932 0.804688 14.888 0.804688V2.30469ZM15.0269 2.44358V3.33247H16.5269V2.44358H15.0269ZM15.0269 7.77691V9.55469H16.5269V7.77691H15.0269ZM15.0269 13.9991V14.888H16.5269V13.9991H15.0269ZM15.0269 14.888C15.0269 14.9647 14.9647 15.0269 14.888 15.0269V16.5269C15.7932 16.5269 16.5269 15.7932 16.5269 14.888H15.0269ZM14.888 15.0269H13.9991V16.5269H14.888V15.0269ZM9.55469 15.0269H7.77691V16.5269H9.55469V15.0269ZM3.33247 15.0269H2.44358V16.5269H3.33247V15.0269ZM2.44358 15.0269C2.36687 15.0269 2.30469 14.9647 2.30469 14.888H0.804688C0.804688 15.7932 1.53844 16.5269 2.44358 16.5269V15.0269ZM2.30469 14.888V13.9991H0.804688V14.888H2.30469ZM2.30469 9.55469V7.77691H0.804688V9.55469H2.30469Z" fill="white"/>
</svg>
