<svg width="144" height="92" viewBox="0 0 144 92" fill="none" xmlns="http://www.w3.org/2000/svg">
<path d="M124 79L112 90" stroke="#FE2B54" stroke-width="3" stroke-linecap="round" stroke-linejoin="round"/>
<path d="M112 79L124 90" stroke="#FE2B54" stroke-width="3" stroke-linecap="round" stroke-linejoin="round"/>
<path d="M130 11L126 14" stroke="#FE2B54" stroke-linecap="round" stroke-linejoin="round"/>
<path d="M126 11L130 14" stroke="#FE2B54" stroke-linecap="round" stroke-linejoin="round"/>
<path d="M5 36L1 39" stroke="#FE2B54" stroke-linecap="round" stroke-linejoin="round"/>
<path d="M1 36L5 39" stroke="#FE2B54" stroke-linecap="round" stroke-linejoin="round"/>
<path d="M44 1L40 4" stroke="#FE2B54" stroke-linecap="round" stroke-linejoin="round"/>
<path d="M40 1L44 4" stroke="#FE2B54" stroke-linecap="round" stroke-linejoin="round"/>
<path d="M143 50L137 55" stroke="#FE2B54" stroke-width="1.5" stroke-linecap="round" stroke-linejoin="round"/>
<path d="M137 50L143 55" stroke="#FE2B54" stroke-width="1.5" stroke-linecap="round" stroke-linejoin="round"/>
<path d="M20 69L14 74" stroke="#FE2B54" stroke-width="1.5" stroke-linecap="round" stroke-linejoin="round"/>
<path d="M14 69L20 74" stroke="#FE2B54" stroke-width="1.5" stroke-linecap="round" stroke-linejoin="round"/>
<path d="M42 18L102 78" stroke="#FE2B54" stroke-width="6" stroke-linecap="round" stroke-linejoin="round"/>
<path d="M67.2789 43.2891C64.674 45.8922 64.6725 50.1141 67.2756 52.7191C69.8787 55.324 74.1006 55.3255 76.7056 52.7224" stroke="#FE2B54" stroke-width="6" stroke-linecap="round" stroke-linejoin="round"/>
<path d="M62.3844 22.9986C60.7914 23.4543 59.8695 25.115 60.3252 26.708C60.7809 28.3009 62.4416 29.2229 64.0346 28.7672L62.3844 22.9986ZM71.9995 24.6662L71.9888 27.6662H71.9995V24.6662ZM105.333 47.9995L107.937 49.4884C108.465 48.566 108.465 47.4335 107.938 46.5111L105.333 47.9995ZM94.7864 57.59C93.6618 58.8067 93.7365 60.7047 94.9532 61.8293C96.1699 62.9539 98.068 62.8792 99.1926 61.6625L94.7864 57.59ZM91.5335 68.3167C92.9071 67.3903 93.2696 65.5257 92.3432 64.1521C91.4168 62.7784 89.5522 62.4159 88.1786 63.3423L91.5335 68.3167ZM38.666 47.9995L36.0615 46.5108C35.5343 47.4331 35.5342 48.5656 36.0613 49.488L38.666 47.9995ZM55.7901 32.6789C57.1612 31.7489 57.5188 29.8833 56.5888 28.5122C55.6587 27.141 53.7931 26.7834 52.422 27.7135L55.7901 32.6789ZM64.0346 28.7672C66.6209 28.0273 69.2988 27.6567 71.9888 27.6662L72.0101 21.6662C68.7548 21.6547 65.5142 22.1032 62.3844 22.9986L64.0346 28.7672ZM71.9995 27.6662C83.8928 27.6662 94.1634 34.5006 102.728 49.488L107.938 46.5111C98.7222 30.3852 86.7728 21.6662 71.9995 21.6662V27.6662ZM102.728 46.5107C100.226 50.888 97.5754 54.5725 94.7864 57.59L99.1926 61.6625C102.344 58.2533 105.253 54.1844 107.937 49.4884L102.728 46.5107ZM88.1786 63.3423C83.229 66.6805 77.8648 68.3329 71.9994 68.3329V74.3329C79.0806 74.3329 85.6097 72.3119 91.5335 68.3167L88.1786 63.3423ZM71.9994 68.3329C60.1061 68.3329 49.8354 61.4985 41.2707 46.5111L36.0613 49.488C45.2766 65.6139 57.226 74.3329 71.9994 74.3329V68.3329ZM41.2705 49.4883C45.6779 41.7779 50.5416 36.239 55.7901 32.6789L52.422 27.7135C46.2105 31.9268 40.7808 38.2546 36.0615 46.5108L41.2705 49.4883Z" fill="#FE2B54"/>
</svg>
